<svg width="73" height="67" viewBox="0 0 73 67" fill="none" xmlns="http://www.w3.org/2000/svg">
<g id="solar:health-bold">
<path id="Vector" fill-rule="evenodd" clip-rule="evenodd" d="M35.4746 73.1064C23.8252 64.1804 7.91669 49.4356 7.91669 35.4944C7.91669 12.2035 29.6875 3.50707 47.5 21.4937C65.3125 3.50707 87.0834 12.2035 87.0834 35.4944C87.0834 49.4356 71.1709 64.1804 59.5254 73.1064C54.2529 77.144 51.6167 79.1667 47.5 79.1667C43.3834 79.1667 40.7471 77.1479 35.4746 73.1064ZM65.3125 24.7396C66.0999 24.7396 66.855 25.0524 67.4117 25.6091C67.9685 26.1658 68.2813 26.921 68.2813 27.7083V32.6562H73.2292C74.0165 32.6562 74.7717 32.969 75.3284 33.5258C75.8852 34.0825 76.1979 34.8376 76.1979 35.625C76.1979 36.4124 75.8852 37.1675 75.3284 37.7242C74.7717 38.281 74.0165 38.5937 73.2292 38.5937H68.2813V43.5417C68.2813 44.329 67.9685 45.0841 67.4117 45.6409C66.855 46.1976 66.0999 46.5104 65.3125 46.5104C64.5252 46.5104 63.7701 46.1976 63.2133 45.6409C62.6566 45.0841 62.3438 44.329 62.3438 43.5417V38.5937H57.3959C56.6085 38.5937 55.8534 38.281 55.2966 37.7242C54.7399 37.1675 54.4271 36.4124 54.4271 35.625C54.4271 34.8376 54.7399 34.0825 55.2966 33.5258C55.8534 32.969 56.6085 32.6562 57.3959 32.6562H62.3438V27.7083C62.3438 26.921 62.6566 26.1658 63.2133 25.6091C63.7701 25.0524 64.5252 24.7396 65.3125 24.7396Z" fill="url(#paint0_linear_33_10)"/>
</g>
<defs>
<linearGradient id="paint0_linear_33_10" x1="47.5" y1="11.8746" x2="47.5" y2="79.1667" gradientUnits="userSpaceOnUse">
<stop stop-color="#39ECF5"/>
<stop offset="1" stop-color="#218A8F"/>
</linearGradient>
</defs>
</svg>
